<?xml version="1.0" encoding="UTF-8"?><svg id="a" xmlns="http://www.w3.org/2000/svg" xmlns:xlink="http://www.w3.org/1999/xlink" viewBox="0 0 411.33 57.12"><defs><linearGradient id="b" x1="213.65" y1="24.54" x2="411.33" y2="24.54" gradientUnits="userSpaceOnUse"><stop offset="0" stop-color="#49ced9"/><stop offset="1" stop-color="#7bdbe3"/></linearGradient><linearGradient id="c" x1="0" y1="25.14" x2="189.09" y2="25.14" gradientUnits="userSpaceOnUse"><stop offset="0" stop-color="#fc4c86"/><stop offset="1" stop-color="#fad141"/></linearGradient></defs><path d="M200.03,38.89c-1.16-1.16-3.04-1.16-4.2,0,0,0,0,0,0,0l-.57,.57-.57-.57c-1.16-1.16-3.04-1.16-4.2,0-1.16,1.16-1.16,3.04,0,4.2l.57,.57,4.2,4.2,4.2-4.2,.57-.57c1.16-1.16,1.16-3.04,0-4.2,0,0,0,0,0,0Z" fill="#fad141"/><path d="M126.03,38.89c-1.16-1.16-3.04-1.16-4.2,0,0,0,0,0,0,0l-.57,.57-.57-.57c-1.16-1.16-3.04-1.16-4.2,0-1.16,1.16-1.16,3.04,0,4.2l.57,.57,4.2,4.2,4.2-4.2,.57-.57c1.16-1.16,1.16-3.04,0-4.2,0,0,0,0,0,0Z" fill="#fb8f64"/><path d="M59.03,38.89c-1.16-1.16-3.04-1.16-4.2,0,0,0,0,0,0,0l-.57,.57-.57-.57c-1.16-1.16-3.04-1.16-4.2,0-1.16,1.16-1.16,3.04,0,4.2l.57,.57,4.2,4.2,4.2-4.2,.57-.57c1.16-1.16,1.16-3.04,0-4.2,0,0,0,0,0,0Z" fill="#fc4c86"/><path d="M298.02,19.08h9.54c.88,0,1.26,.44,1.14,1.32l-4.86,27.36c-.16,.88-.68,1.32-1.56,1.32h-38.04c-.92,0-1.3-.44-1.14-1.32l1.44-8.22c.16-.92,.7-1.38,1.62-1.38h25.74c.92,0,1.46-.44,1.62-1.32l2.88-16.44c.16-.88,.7-1.32,1.62-1.32Zm-28.38-16.38h40.8c.92,0,1.3,.46,1.14,1.38l-1.5,8.22c-.12,.88-.64,1.32-1.56,1.32h-40.8c-.88,0-1.26-.44-1.14-1.32l1.5-8.22c.16-.92,.68-1.38,1.56-1.38Zm49.38,16.38h39.84c.92,0,1.3,.46,1.14,1.38l-1.44,8.16c-.16,.92-.7,1.38-1.62,1.38h-39.84c-.92,0-1.3-.46-1.14-1.38l1.44-8.16c.16-.92,.7-1.38,1.62-1.38Zm88.38,0c.92,0,1.3,.44,1.14,1.32l-1.44,8.28c-.16,.88-.7,1.32-1.62,1.32h-24c-.92,0-1.46,.44-1.62,1.32l-2.88,16.44c-.16,.88-.7,1.32-1.62,1.32h-10.08c-.92,0-1.3-.44-1.14-1.32l4.86-27.36c.16-.88,.68-1.32,1.56-1.32h36.84ZM385.18,0h-11.26c-.88,0-1.4,.44-1.56,1.32l-1.92,10.98c-.16,.88,.2,1.32,1.08,1.32h11.18c.93,0,1.47-.44,1.63-1.32l1.94-10.98c.16-.88-.2-1.32-1.09-1.32Zm13.7,10.92c-.56,0-.78-.28-.66-.84l1.38-7.92c.08-.52,.4-.78,.96-.78h3.12c.56,0,.8,.26,.72,.78l-1.44,7.92c-.08,.56-.4,.84-.96,.84h-3.12Zm11.76-9.54c.56,0,.78,.26,.66,.78l-1.38,7.92c-.08,.56-.4,.84-.96,.84h-3.12c-.56,0-.78-.28-.66-.84l1.38-7.92c.08-.52,.4-.78,.96-.78h3.12Zm-151,23.16h-12.18c-.88,0-1.62,.34-2.22,1.02l-10.02,11.58c-.6,.68-1.34,1.02-2.22,1.02h-3.72c-.92,0-1.3-.44-1.14-1.32l2.91-16.59c.11-.61-.36-1.17-.98-1.17h-10.51c-.49,0-.9,.35-.98,.83l-4.89,27.85c-.16,.88,.22,1.32,1.14,1.32h23.64c.88,0,1.62-.34,2.22-1.02l19.44-22.5c.16-.2,.24-.38,.24-.54,0-.32-.24-.48-.72-.48ZM234.38,1.32c.16-.88-.2-1.32-1.08-1.32h-9.84c-.92,0-1.46,.44-1.62,1.32l-1.96,11.13c-.11,.61,.36,1.17,.98,1.17h10.51c.49,0,.9-.35,.98-.83l2.02-11.47Z" fill="url(#b)"/><path d="M6.58,1.95H47.38c.92,0,1.3,.46,1.14,1.38l-1.5,8.22c-.12,.88-.64,1.32-1.56,1.32H4.66c-.88,0-1.26-.44-1.14-1.32L5.02,3.33c.16-.92,.68-1.38,1.56-1.38Zm67,0h40.8c.92,0,1.3,.46,1.14,1.38l-1.5,8.22c-.12,.88-.64,1.32-1.56,1.32h-40.8c-.88,0-1.26-.44-1.14-1.32l1.5-8.22c.16-.92,.68-1.38,1.56-1.38Zm-27.94,17.7c.12-.88-.26-1.32-1.14-1.32h-9.54c-.92,0-1.46,.44-1.62,1.32l-2.88,16.44c-.16,.88-.7,1.32-1.62,1.32H3.1c-.92,0-1.46,.46-1.62,1.38L.04,47.01c-.16,.88,.22,1.32,1.14,1.32H24.34l19.7-19.7,1.6-8.99Zm67,0c.12-.88-.26-1.32-1.14-1.32h-9.54c-.92,0-1.46,.44-1.62,1.32l-2.88,16.44c-.16,.88-.7,1.32-1.62,1.32h-25.74c-.92,0-1.46,.46-1.62,1.38l-1.44,8.22c-.16,.88,.22,1.32,1.14,1.32h23.17l19.7-19.7,1.6-8.99ZM189.06,3.33c.16-.92-.22-1.38-1.14-1.38h-39.84c-.88,0-1.4,.46-1.56,1.38l-1.5,8.22c-.12,.88,.26,1.32,1.14,1.32h27.54c.92,0,1.3,.44,1.14,1.32l-3.84,21.9c-.16,.88-.7,1.32-1.62,1.32h-15.24c-.92,0-1.3-.44-1.14-1.32l2.88-16.44c.16-.88-.22-1.32-1.14-1.32h-9.54c-.92,0-1.44,.44-1.56,1.32l-4.86,27.36c-.16,.88,.22,1.32,1.14,1.32h25.43l19.13-19.13,4.58-25.87Z" fill="url(#c)"/><line x1="15.89" y1="56.87" x2="66.1" y2="6.66" fill="none" stroke="#7f7f7f" stroke-linecap="round" stroke-miterlimit="10" stroke-width=".5"/><line x1="82.89" y1="56.87" x2="132.6" y2="7.16" fill="none" stroke="#7f7f7f" stroke-linecap="round" stroke-miterlimit="10" stroke-width=".5"/><line x1="156.89" y1="56.87" x2="206.6" y2="7.16" fill="none" stroke="#7f7f7f" stroke-linecap="round" stroke-miterlimit="10" stroke-width=".5"/></svg>